<?xml version="1.0" encoding="utf-8"?>
<?xml-stylesheet type="text/xsl" href="rss1.xsl"?>
<rss version="2.0" xmlns:atom="http://www.w3.org/2005/Atom" xmlns:content="http://purl.org/rss/1.0/modules/content/" xmlns:dc="http://purl.org/dc/elements/1.1/" xmlns:media="http://search.yahoo.com/mrss/">
<channel>
 <title>Getty</title>
 <link>http://www.gettyimg.com/</link>
 <atom:link href="http://www.gettyimg.com/" rel="self" type="application/rss+xml" />

 
                <item>
                <title><![CDATA[【Cinema Center】SERIES - South.Park.S01.1080p.AMZN.WEB-DL.AAC.x264-TVGuyX]]></title>
                <link><![CDATA[https://sharemania.us/threads/south-park-s01-1080p-amzn-web-dl-aac-x264-tvguyx.250082/]]></link>
                <description><![CDATA[<article>
<blockquote class="messageText SelectQuoteContainer ugc baseHtml">
South.Park.S01.1080p.AMZN.WEB-DL.AAC.x264-TVGuyX<br>
<img src="https://theposterdb.com/api/assets/338319/" class="bbCodeImage LbImage" alt="[​IMG]" data-url="https://theposterdb.com/api/assets/338319/" style=""><br>
<b><i>Description:</i></b><br>
Follows the misadventures of four irreverent grade-schoolers in the quiet, dysfunctional town of South Park, Colorado.<br>
<i>-IMDB<br>
</i><br>
I ripped the complete first season of South Park from Amazon Prime Video. I have more seasons and episodes of South Park coming soon. If you share these files please don’t take all the credit.<br>
<br>
<div class="bbCodeBlock bbCodeVfcHH HiddenContent">
<div class="attribution type">Hidden Content:</div>
<blockquote>You must either reply or click 'Like' to see the hidden information contained here.</blockquote>
</div>
<div class="messageTextEndMarker">&nbsp;</div>
</blockquote>
</article>]]></description>
                <author><![CDATA[TVGuyX]]></author>
                </item>

                
                <item>
                <title><![CDATA[【Albums (lossy)】MP3 - [Single] HORI7ON – DASH 2023]]></title>
                <link><![CDATA[https://sharemania.us/threads/single-hori7on-%E2%80%93-dash-2023.250080/]]></link>
                <description><![CDATA[<article>
<blockquote class="messageText SelectQuoteContainer ugc baseHtml">
<img src="https://i.imgur.com/af5HC7O.jpeg" class="bbCodeImage LbImage" alt="[​IMG]" data-url="https://i.imgur.com/af5HC7O.jpeg" style=""><br>
<br>
Hori7on was formed through audition program "Dream Maker," launched together by Korean agency MLD Entertainment and Filipino media company ABS-CBN. The program is described as a "collaboration between K-pop and [Pinoy pop]." Both Korean and Filipino fans were able to vote throughout the program.<br>
<br>
<div class="bbCodeBlock bbCodeVfcHH HiddenContent">
<div class="attribution type">Hidden Content:</div>
<blockquote>You must either reply or click 'Like' to see the hidden information contained here.</blockquote>
</div>
<div class="messageTextEndMarker">&nbsp;</div>
</blockquote>
</article>]]></description>
                <author><![CDATA[Quatozic]]></author>
                </item>

                
                <item>
                <title><![CDATA[【SD】DVD - Andrew W.K. - Party Hard (DVD Clean)]]></title>
                <link><![CDATA[https://sharemania.us/threads/andrew-w-k-party-hard-dvd-clean.250081/]]></link>
                <description><![CDATA[<article>
<blockquote class="messageText SelectQuoteContainer ugc baseHtml">
<div style="text-align: center"><img src="https://i.gyazo.com/84d039e30cdcb73c6c1227fdf8cec5fa.png" class="bbCodeImage LbImage" alt="[​IMG]" data-url="https://i.gyazo.com/84d039e30cdcb73c6c1227fdf8cec5fa.png" style=""> <br>
<div class="bbCodeBlock bbCodeCode">
<div class="type">Code:</div>
<pre>General
Unique ID                      : 166016424206107847176416059137916905487 (0x7CE599AAE47F948A40896A128437A80F)
Format                         : Matroska
Format version                 : Version 2
File size                      : 182 MiB
Duration                       : 3 min 32 s
Overall bit rate mode          : Constant
Overall bit rate               : 7 198 kb/s
Frame rate                     : 29.970 FPS
Encoded date                   : 2024-07-16 10:11:13 UTC
Writing application            : MakeMKV v1.17.7 win(x64-release)
Writing library                : libmakemkv v1.17.7 (1.3.10/1.5.2) win(x64-release)

Video
ID                             : 1
ID in the original source medi : 224 (0xE0)
Format                         : MPEG Video
Format version                 : Version 2
Format profile                 : Main@Main
Format settings                : BVOP
Format settings, BVOP          : Yes
Format settings, Matrix        : Default
Format settings, GOP           : M=3, N=13
Format settings, picture struc : Frame
Codec ID                       : V_MPEG2
Codec ID/Info                  : MPEG 1 or 2 Video
Duration                       : 3 min 32 s
Bit rate mode                  : Constant
Bit rate                       : 7 000 kb/s
Width                          : 720 pixels
Height                         : 480 pixels
Display aspect ratio           : 4:3
Frame rate mode                : Constant
Frame rate                     : 29.970 (30000/1001) FPS
Standard                       : NTSC
Color space                    : YUV
Chroma subsampling             : 4:2:0
Bit depth                      : 8 bits
Scan type                      : Interlaced
Scan order                     : Top Field First
Compression mode               : Lossy
Bits/(Pixel*Frame)             : 0.676
Time code of first frame       : 00:59:58:17
Time code source               : Group of pictures header
GOP, Open/Closed               : Open
Stream size                    : 177 MiB (97%)
Language                       : English
Default                        : No
Forced                         : No
Color primaries                : BT.601 NTSC
Transfer characteristics       : BT.601
Matrix coefficients            : BT.601
Original source medium         : DVD-Video

Audio
ID                             : 2
ID in the original source medi : 189 (0xBD)128 (0x80)
Format                         : AC-3
Format/Info                    : Audio Coding 3
Commercial name                : Dolby Digital
Codec ID                       : A_AC3
Duration                       : 3 min 32 s
Bit rate mode                  : Constant
Bit rate                       : 192 kb/s
Channel(s)                     : 2 channels
Channel layout                 : L R
Sampling rate                  : 48.0 kHz
Frame rate                     : 31.250 FPS (1536 SPF)
Compression mode               : Lossy
Stream size                    : 4.87 MiB (3%)
Title                          : Stereo
Language                       : English
Service kind                   : Complete Main
Default                        : Yes
Forced                         : No
Original source medium         : DVD-Video
Dialog Normalization           : -27 dB
compr                          : -0.28 dB
dialnorm_Average               : -27 dB
dialnorm_Minimum               : -27 dB
dialnorm_Maximum               : -27 dB</pre>
</div>
<div class="bbCodeBlock bbCodeVfcHH HiddenContent">
<div class="attribution type">Hidden Content:</div>
<blockquote>You must either reply or click 'Like' to see the hidden information contained here.</blockquote>
</div></div>
<div class="messageTextEndMarker">&nbsp;</div>
</blockquote>
</article>]]></description>
                <author><![CDATA[Rey619Spear]]></author>
                </item>

                </channel></rss>